<?xml version="1.0" encoding="utf-8"?>
<svg version="1.0" xmlns="http://www.w3.org/2000/svg" width="96px" height="96px" preserveAspectRatio="xMidYMid meet" xmlns:bx="https://boxy-svg.com" viewBox="0 0 96 96">
  <defs>
    <radialGradient gradientUnits="userSpaceOnUse" cx="699.75" cy="-685.96" r="575.835" id="gradient-1" gradientTransform="matrix(1.253125, 1.231442, -1.192243, 1.213241, -994.95643, -715.426013)" spreadMethod="pad">
      <stop offset="0" style="stop-color: rgb(238, 237, 126);"/>
      <stop offset="1" style="stop-color: rgb(216, 157, 24);"/>
    </radialGradient>
    <bx:export>
      <bx:file format="svg" href="#object-0" path="Unbetitelt.svg" units="pt" excluded="true"/>
      <bx:file format="svg" href="#object-1" path="Unbetitelt 2.svg" units="pt" excluded="true"/>
      <bx:file format="svg" href="#object-1" path="Unbetitelt 4.svg" units="pt"/>
      <bx:file format="svg" href="#object-3" path="Unbetitelt 5.svg" units="pt"/>
      <bx:file format="svg" href="#object-0" path="Unbetitelt 6.svg" units="pt"/>
      <bx:file format="svg" href="#object-4" path="Unbetitelt 7.svg" units="pt"/>
      <bx:file format="svg" href="#object-5" path="Unbetitelt 8.svg" units="pt"/>
      <bx:file format="svg" href="#object-2" path="Unbetitelt 3.svg" units="pt"/>
      <bx:file format="svg" path="Unbetitelt 9.svg" units="pt"/>
    </bx:export>
  </defs>
  <g transform="matrix(0.07106, 0, 0, -0.071775, -2.105062, 96.759622)" fill="#000000" stroke="none" id="object-2">
    <ellipse style="fill-rule: nonzero; stroke-linecap: round; fill: url(&quot;#gradient-1&quot;); paint-order: stroke markers; stroke: rgb(255, 249, 133);" cx="699.75" cy="-685.96" rx="562.904" ry="557.295" transform="matrix(1, 0, 0, -1, 0, 0)" id="object-1"/>
    <path d="M 432.516 1012.74 C 353.867 981.578 280.836 881.173 324.842 864.728 C 334.205 862.131 350.386 887.817 385.029 918.977 C 414.99 944.943 451.16 969.352 472.694 979.739 C 523.254 1003.11 542.063 1026.59 496.184 1026.59 C 479.331 1025.72 450.306 1019.67 432.516 1012.74 Z" style="fill-opacity: 0.9; fill: rgb(74, 29, 5);" id="object-3"/>
    <path d="M 869.391 891.02 C 768.982 863.107 760.124 832.303 734.702 798.065 C 735.004 777.501 730.441 765.591 752.54 766.226 C 837.657 767.336 904.282 763.706 948.554 741.861 C 1002.87 714.86 1017.27 712.474 1023.67 737.587 C 1028.58 757.696 997.877 762.721 939.177 787.539 L 817.561 816.039 L 899.825 844.663 C 1034.61 885.233 1046.62 887.856 1000.13 896.371 C 974.811 901.011 929.921 907.847 869.391 891.02 Z" style="stroke-width: 0px; fill-opacity: 0.9; fill: rgb(74, 29, 5); transform-origin: 696.835px 558.513px;" id="object-0"/>
    <path d="M 424.611 847.082 C 374.997 801.145 378.098 725.54 431.847 683.431 C 483.528 643.236 542.444 660.462 571.386 724.583 C 614.798 822.199 501.099 916.945 424.611 847.082 Z M 495.089 805.483 C 495.089 784.428 456.912 759.142 441.408 773.497 C 425.904 787.853 453.731 826.858 476.471 826.858 C 488.874 826.858 495.089 816.967 495.089 805.483 Z" style="fill-opacity: 0.9; fill: rgb(74, 29, 5);" id="object-4"/>
    <path d="M 417.223 534.791 C 413.223 532.086 402.134 529.515 404.826 514.387 C 410.051 485.029 425.709 449.195 484.52 408.829 C 535.166 374.067 584.106 344.8 698.106 344.8 C 805.106 344.8 857.951 374.762 901.57 394.559 C 969.777 425.515 1000.257 478.043 1000.22 508.644 C 1000.179 542.004 903.858 476.221 825.771 453.818 C 762.144 435.563 644.296 424.152 550.952 469.099 C 509.113 489.245 426.223 543.807 417.223 534.791 Z" style="fill-opacity: 0.88; fill: rgb(74, 29, 5); transform-box: fill-box; transform-origin: 50.1243% 50.6932%;" id="object-5"/>
  </g>
</svg>