<?xml version="1.0" encoding="utf-8"?>
<svg version="1.0" xmlns="http://www.w3.org/2000/svg" width="141.000000pt" height="137.000000pt" viewBox="0 0 141.000000 137.000000" preserveAspectRatio="xMidYMid meet" xmlns:bx="https://boxy-svg.com"><defs><radialGradient gradientUnits="userSpaceOnUse" cx="699.75" cy="-685.96" r="575.835" id="gradient-1" gradientTransform="matrix(1.253125, 1.231442, -1.192243, 1.213241, -994.95643, -715.426013)" spreadMethod="pad"><stop offset="0" style="stop-color: rgb(238, 237, 126);"/><stop offset="1" style="stop-color: rgb(216, 157, 24);"/></radialGradient><bx:export><bx:file format="svg" href="#object-0" path="Unbetitelt.svg" units="pt" excluded="true"/><bx:file format="svg" href="#object-1" path="Unbetitelt 2.svg" units="pt" excluded="true"/><bx:file format="svg" href="#object-1" path="Unbetitelt 4.svg" units="pt"/><bx:file format="svg" href="#object-3" path="Unbetitelt 5.svg" units="pt"/><bx:file format="svg" href="#object-0" path="Unbetitelt 6.svg" units="pt"/><bx:file format="svg" href="#object-4" path="Unbetitelt 7.svg" units="pt"/><bx:file format="svg" href="#object-5" path="Unbetitelt 8.svg" units="pt"/><bx:file format="svg" href="#object-2" path="Unbetitelt 3.svg" units="pt"/><bx:file format="svg" path="Unbetitelt 9.svg" units="pt"/></bx:export></defs><g transform="translate(0.000000,137.000000) scale(0.100000,-0.100000)" fill="#000000" stroke="none" id="object-2"><ellipse style="fill-rule: nonzero; stroke-linecap: round; fill: url(&quot;#gradient-1&quot;); paint-order: stroke markers; stroke: rgb(255, 249, 133);" cx="699.75" cy="-685.96" rx="562.904" ry="557.295" transform="matrix(1, 0, 0, -1, 0, 0)" id="object-1"/><path d="M 415.858 1032.86 C 331.858 996.858 253.858 880.858 300.858 861.858 C 310.858 858.858 336.858 875.858 373.858 911.858 C 405.858 941.858 450.858 975.858 473.858 987.858 C 527.858 1014.86 532.858 1048.86 483.858 1048.86 C 465.858 1047.86 434.858 1040.86 415.858 1032.86 Z" style="fill-opacity: 0.9; fill: rgb(74, 29, 5);" id="object-3"/><path d="M 844.665 941.987 C 742.193 907.987 659.588 840.987 665.861 794.987 C 667.953 770.987 673.181 765.987 695.14 768.987 C 779.836 778.987 840.483 772.987 886.491 751.987 C 942.953 725.987 971.183 727.987 975.363 757.987 C 978.503 781.987 934.583 817.987 873.943 840.987 L 839.436 853.987 L 897.996 882.987 C 957.583 911.987 975.363 941.987 939.813 954.987 C 915.763 963.987 905.313 961.987 844.665 941.987 Z" style="stroke-width: 0px; fill-opacity: 0.9; fill: rgb(74, 29, 5); transform-origin: 655.526px 540.831px;" id="object-0" transform="matrix(0.996195, -0.087156, 0.087156, 0.996195, -0.000003, -0.00001)"/><path d="M 416.146 847.082 C 366.532 801.145 369.633 725.54 423.382 683.431 C 475.063 643.236 533.979 660.462 562.921 724.583 C 606.333 822.199 492.634 916.945 416.146 847.082 Z M 472.996 804.016 C 472.996 782.961 449.222 771.477 433.718 785.832 C 418.214 800.188 430.617 822.199 453.357 822.199 C 465.76 822.199 472.996 815.5 472.996 804.016 Z" style="fill-opacity: 0.9; fill: rgb(74, 29, 5);" id="object-4"/><path d="M417 493 c-4 -3 -7 -19 -7 -34 0 -36 41 -76 116 -114 56 -28 65 -30 179 -30 107 0 125 3 169 24 68 34 126 91 126 125 0 37 -18 41 -97 20 -92 -24 -301 -24 -396 -1 -77 19 -81 20 -90 10z" style="fill-opacity: 0.88; fill: rgb(74, 29, 5);" id="object-5"/></g></svg>