<?xml version="1.0" encoding="utf-8"?>
<svg version="1.0" xmlns="http://www.w3.org/2000/svg" width="96px" height="96px" preserveAspectRatio="xMidYMid meet" xmlns:bx="https://boxy-svg.com" viewBox="0 0 96 96">
  <defs>
    <radialGradient gradientUnits="userSpaceOnUse" cx="699.75" cy="-685.96" r="575.835" id="gradient-1" gradientTransform="matrix(1.253125, 1.231442, -1.192243, 1.213241, -994.95643, -715.426013)" spreadMethod="pad">
      <stop offset="0" style="stop-color: rgb(238, 237, 126);"/>
      <stop offset="1" style="stop-color: rgb(216, 157, 24);"/>
    </radialGradient>
    <bx:export>
      <bx:file format="svg" href="#object-0" path="Unbetitelt.svg" units="pt" excluded="true"/>
      <bx:file format="svg" href="#object-1" path="Unbetitelt 2.svg" units="pt" excluded="true"/>
      <bx:file format="svg" href="#object-1" path="Unbetitelt 4.svg" units="pt"/>
      <bx:file format="svg" href="#object-3" path="Unbetitelt 5.svg" units="pt"/>
      <bx:file format="svg" href="#object-0" path="Unbetitelt 6.svg" units="pt"/>
      <bx:file format="svg" href="#object-4" path="Unbetitelt 7.svg" units="pt"/>
      <bx:file format="svg" href="#object-5" path="Unbetitelt 8.svg" units="pt"/>
      <bx:file format="svg" href="#object-2" path="Unbetitelt 3.svg" units="pt"/>
      <bx:file format="svg" path="Unbetitelt 9.svg" units="pt"/>
    </bx:export>
  </defs>
  <g transform="matrix(0.07106, 0, 0, -0.071775, -2.105062, 96.759622)" fill="#000000" stroke="none" id="object-2">
    <ellipse style="fill-rule: nonzero; stroke-linecap: round; fill: url(&quot;#gradient-1&quot;); paint-order: stroke markers; stroke: rgb(255, 249, 133);" cx="699.75" cy="-685.96" rx="562.904" ry="557.295" transform="matrix(1, 0, 0, -1, 0, 0)" id="object-1"/>
    <path d="M 432.516 1012.74 C 353.867 981.578 280.836 881.173 324.842 864.728 C 334.205 862.131 350.386 887.817 385.029 918.977 C 414.99 944.943 451.16 969.352 472.694 979.739 C 523.254 1003.11 542.063 1026.59 496.184 1026.59 C 479.331 1025.72 450.306 1019.67 432.516 1012.74 Z" style="fill-opacity: 0.9; fill: rgb(74, 29, 5);" id="object-3"/>
    <path d="M 803.152 898.205 C 705.558 861.647 697.35 830.007 675.009 793.684 C 677.101 773.224 675.663 761.143 697.622 763.701 C 782.318 772.226 849.006 774.416 895.014 756.513 C 951.476 734.348 966.032 733.227 970.212 758.802 C 973.352 779.262 930.224 787.514 869.584 807.122 L 765.71 818.176 L 895.409 870.472 C 954.996 895.195 969.016 905.735 932.932 914.931 C 907.989 921.288 861.985 920.243 803.152 898.205 Z" style="stroke-width: 0px; fill-opacity: 0.9; fill: rgb(74, 29, 5); transform-origin: 658.008px 569.196px;" id="object-0" transform="matrix(0.996195, -0.087156, 0.087156, 0.996195, 0.000052, -0.000053)"/>
    <path d="M 416.146 847.082 C 366.532 801.145 369.633 725.54 423.382 683.431 C 475.063 643.236 533.979 660.462 562.921 724.583 C 606.333 822.199 492.634 916.945 416.146 847.082 Z M 486.624 805.483 C 486.624 784.428 448.447 759.142 432.943 773.497 C 417.439 787.853 445.266 826.858 468.006 826.858 C 480.409 826.858 486.624 816.967 486.624 805.483 Z" style="fill-opacity: 0.9; fill: rgb(74, 29, 5);" id="object-4"/>
    <path d="M 417.223 534.791 C 413.223 532.086 410.223 517.66 410.223 504.136 C 410.223 471.678 451.223 435.614 526.223 401.352 C 582.223 376.107 584.106 344.8 698.106 344.8 C 805.106 344.8 830.223 377.009 874.223 395.943 C 942.223 426.598 1000.22 477.989 1000.22 508.644 C 1000.22 542.004 884.907 474.912 806.82 452.509 C 743.193 434.254 657.485 414.389 569.47 469.04 C 532.166 492.203 426.223 543.807 417.223 534.791 Z" style="fill-opacity: 0.88; fill: rgb(74, 29, 5); transform-box: fill-box; transform-origin: 50.1243% 50.6932%;" id="object-5"/>
  </g>
</svg>